<svg width="400" height="240" viewBox="0 0 400 240" fill="none" xmlns="http://www.w3.org/2000/svg">
  <rect width="400" height="240" fill="#1e1b4b"/>
  <rect x="50" y="40" width="300" height="160" rx="8" fill="#312e81"/>
  
  <!-- Shield -->
  <path d="M200 70 L170 85 L170 130 C170 145 185 155 200 160 C215 155 230 145 230 130 L230 85 Z" fill="#22c55e"/>
  <path d="M200 80 L180 90 L180 125 C180 135 190 142 200 145 C210 142 220 135 220 125 L220 90 Z" fill="#16a34a"/>
  
  <!-- Lock icon -->
  <rect x="195" y="110" width="10" height="15" rx="2" fill="#1e1b4b"/>
  <path d="M195 110 C195 105 197.5 102.5 200 102.5 C202.5 102.5 205 105 205 110" stroke="#1e1b4b" stroke-width="2" fill="none"/>
  
  <text x="200" y="210" text-anchor="middle" fill="#e2e8f0" font-family="Arial, sans-serif" font-size="14" font-weight="600">SmartShield Security</text>
</svg>